<?xml version="1.0" encoding="utf-8"?>
<!-- Generator: Adobe Illustrator 16.0.0, SVG Export Plug-In . SVG Version: 6.00 Build 0)  -->
<!DOCTYPE svg PUBLIC "-//W3C//DTD SVG 1.1//EN" "http://www.w3.org/Graphics/SVG/1.1/DTD/svg11.dtd">
<svg version="1.1" id="Layer_1" xmlns="http://www.w3.org/2000/svg" xmlns:xlink="http://www.w3.org/1999/xlink" x="0px" y="0px"
	 width="1380.514px" height="943px" viewBox="0 0 1380.514 943" enable-background="new 0 0 1380.514 943" xml:space="preserve">
<g>
	<polygon fill="#30C9DA" points="584.254,683.432 342.154,683.432 221.105,473.768 342.154,264.103 584.254,264.103 
		584.268,264.127 584.268,230.748 322.898,230.748 182.591,473.768 322.898,716.786 584.268,716.786 584.268,683.409 	"/>
	<g>
		<circle fill="#2F3096" cx="333.456" cy="253.096" r="29.017"/>
		<circle fill="#2F3096" cx="333.456" cy="696.041" r="29.017"/>
		<circle fill="#2F3096" cx="211.607" cy="473.767" r="29.017"/>
		<circle fill="#2F3096" cx="584.266" cy="246.957" r="29.017"/>
		<circle fill="#2F3096" cx="584.266" cy="696.038" r="29.017"/>
	</g>
	<path fill="#2F3096" d="M583.304,471.502c0,72.058-58.417,130.474-130.476,130.474c-72.058,0-130.475-58.416-130.475-130.474
		c0-72.062,58.417-130.478,130.475-130.478C524.887,341.024,583.304,399.44,583.304,471.502z"/>
	<circle fill="#30C9DA" cx="452.829" cy="471.502" r="96.202"/>
	<g>
		<path fill="#2F3096" d="M616.742,563.64v-176.5h32.018v33.153c12.677-24.703,31.095-37.053,55.256-37.053
			c3.253,0,6.663,0.274,10.24,0.816v30.062c-5.526-1.842-10.401-2.763-14.627-2.763c-20.263,0-37.218,12.014-50.869,36.041V563.64
			H616.742z"/>
		<path fill="#2F3096" d="M752.937,355.121v-32.018h32.017v32.018H752.937z M752.937,563.64v-176.5h32.017v176.5H752.937z"/>
		<path fill="#2F3096" d="M919.36,567.701c-25.897,0-46.4-8.287-61.515-24.862c-15.116-16.579-22.672-39.062-22.672-67.451
			c0-28.383,7.556-50.84,22.672-67.363c15.114-16.522,35.617-24.784,61.515-24.784c25.895,0,46.399,8.262,61.516,24.784
			c15.114,16.523,22.672,38.98,22.672,67.363c0,28.39-7.558,50.872-22.672,67.451C965.76,559.414,945.255,567.701,919.36,567.701z
			 M919.278,543.648c15.902,0,28.233-5.956,36.994-17.875s13.144-28.713,13.144-50.386c0-21.666-4.383-38.435-13.144-50.298
			c-8.761-11.866-21.092-17.796-36.994-17.796s-28.207,5.93-36.916,17.796c-8.707,11.863-13.06,28.632-13.06,50.298
			c0,21.673,4.353,38.467,13.06,50.386C891.071,537.692,903.376,543.648,919.278,543.648z"/>
		<path fill="#2F3096" d="M1053.604,563.64v-176.5h32.016v33.153c16.902-24.703,37.598-37.053,62.084-37.053
			c15.386,0,27.602,4.849,36.648,14.544c9.047,9.698,13.571,22.728,13.571,39.088V563.64h-32.016V447.272
			c0-13.107-1.927-22.453-5.771-28.034c-3.847-5.581-10.213-8.369-19.096-8.369c-19.612,0-38.087,12.836-55.422,38.516V563.64
			H1053.604z"/>
	</g>
</g>
</svg>
